<mxfile host="app.diagrams.net" modified="2020-04-28T08:50:41.180Z" agent="5.0 (Macintosh; Intel Mac OS X 10_15_4) AppleWebKit/537.36 (KHTML, like Gecko) Chrome/81.0.4044.122 Safari/537.36" etag="QokKWZ-wzwFQ2kedkxkZ" version="12.9.10" type="github">
  <diagram id="vZ2q2Lyvlgi1SDBOcN5u" name="Page-1">
    <mxGraphModel dx="1033" dy="706" grid="1" gridSize="10" guides="1" tooltips="1" connect="1" arrows="1" fold="1" page="1" pageScale="1" pageWidth="827" pageHeight="1169" math="0" shadow="0">
      <root>
        <mxCell id="0" />
        <mxCell id="1" parent="0" />
        <mxCell id="NtAfsmwFFrSSaD4eCqGA-9" style="edgeStyle=orthogonalEdgeStyle;rounded=0;orthogonalLoop=1;jettySize=auto;html=1;exitX=0.5;exitY=0;exitDx=0;exitDy=0;entryX=0.5;entryY=1;entryDx=0;entryDy=0;curved=1;" edge="1" parent="1" source="NtAfsmwFFrSSaD4eCqGA-1" target="NtAfsmwFFrSSaD4eCqGA-6">
          <mxGeometry relative="1" as="geometry" />
        </mxCell>
        <mxCell id="NtAfsmwFFrSSaD4eCqGA-10" value="ActivationReport" style="edgeStyle=orthogonalEdgeStyle;rounded=0;orthogonalLoop=1;jettySize=auto;html=1;exitX=0.75;exitY=0;exitDx=0;exitDy=0;entryX=0.5;entryY=1;entryDx=0;entryDy=0;curved=1;" edge="1" parent="1" source="NtAfsmwFFrSSaD4eCqGA-1" target="NtAfsmwFFrSSaD4eCqGA-2">
          <mxGeometry relative="1" as="geometry" />
        </mxCell>
        <mxCell id="NtAfsmwFFrSSaD4eCqGA-1" value="Activation Store" style="rounded=0;whiteSpace=wrap;html=1;" vertex="1" parent="1">
          <mxGeometry x="160" y="360" width="120" height="60" as="geometry" />
        </mxCell>
        <mxCell id="NtAfsmwFFrSSaD4eCqGA-2" value="API Service" style="rounded=0;whiteSpace=wrap;html=1;" vertex="1" parent="1">
          <mxGeometry x="320" y="120" width="120" height="60" as="geometry" />
        </mxCell>
        <mxCell id="NtAfsmwFFrSSaD4eCqGA-8" style="edgeStyle=orthogonalEdgeStyle;rounded=0;orthogonalLoop=1;jettySize=auto;html=1;exitX=0.5;exitY=0;exitDx=0;exitDy=0;entryX=1;entryY=0.5;entryDx=0;entryDy=0;curved=1;" edge="1" parent="1" source="NtAfsmwFFrSSaD4eCqGA-3" target="NtAfsmwFFrSSaD4eCqGA-1">
          <mxGeometry relative="1" as="geometry" />
        </mxCell>
        <mxCell id="NtAfsmwFFrSSaD4eCqGA-17" style="edgeStyle=orthogonalEdgeStyle;curved=1;rounded=0;orthogonalLoop=1;jettySize=auto;html=1;exitX=0.75;exitY=0;exitDx=0;exitDy=0;entryX=0.5;entryY=1;entryDx=0;entryDy=0;" edge="1" parent="1" source="NtAfsmwFFrSSaD4eCqGA-3" target="NtAfsmwFFrSSaD4eCqGA-15">
          <mxGeometry relative="1" as="geometry" />
        </mxCell>
        <mxCell id="NtAfsmwFFrSSaD4eCqGA-3" value="Tickets Store" style="rounded=0;whiteSpace=wrap;html=1;" vertex="1" parent="1">
          <mxGeometry x="320" y="460" width="120" height="60" as="geometry" />
        </mxCell>
        <mxCell id="NtAfsmwFFrSSaD4eCqGA-14" style="edgeStyle=orthogonalEdgeStyle;curved=1;rounded=0;orthogonalLoop=1;jettySize=auto;html=1;exitX=0.5;exitY=0;exitDx=0;exitDy=0;entryX=0.5;entryY=1;entryDx=0;entryDy=0;" edge="1" parent="1" source="NtAfsmwFFrSSaD4eCqGA-4" target="NtAfsmwFFrSSaD4eCqGA-11">
          <mxGeometry relative="1" as="geometry" />
        </mxCell>
        <mxCell id="NtAfsmwFFrSSaD4eCqGA-4" value="Crypto Service" style="rounded=0;whiteSpace=wrap;html=1;" vertex="1" parent="1">
          <mxGeometry x="40" y="120" width="120" height="60" as="geometry" />
        </mxCell>
        <mxCell id="NtAfsmwFFrSSaD4eCqGA-7" value="decrypt" style="edgeStyle=orthogonalEdgeStyle;rounded=0;orthogonalLoop=1;jettySize=auto;html=1;exitX=0.5;exitY=0;exitDx=0;exitDy=0;curved=1;" edge="1" parent="1" source="NtAfsmwFFrSSaD4eCqGA-6" target="NtAfsmwFFrSSaD4eCqGA-4">
          <mxGeometry relative="1" as="geometry" />
        </mxCell>
        <mxCell id="NtAfsmwFFrSSaD4eCqGA-13" style="edgeStyle=orthogonalEdgeStyle;curved=1;rounded=0;orthogonalLoop=1;jettySize=auto;html=1;exitX=0.75;exitY=0;exitDx=0;exitDy=0;entryX=0.5;entryY=1;entryDx=0;entryDy=0;" edge="1" parent="1" source="NtAfsmwFFrSSaD4eCqGA-6" target="NtAfsmwFFrSSaD4eCqGA-12">
          <mxGeometry relative="1" as="geometry" />
        </mxCell>
        <mxCell id="NtAfsmwFFrSSaD4eCqGA-6" value="Barcode Repository" style="rounded=0;whiteSpace=wrap;html=1;" vertex="1" parent="1">
          <mxGeometry x="110" y="250" width="120" height="60" as="geometry" />
        </mxCell>
        <mxCell id="NtAfsmwFFrSSaD4eCqGA-11" value="Decryptor&lt;br&gt;Plugin" style="rhombus;whiteSpace=wrap;html=1;" vertex="1" parent="1">
          <mxGeometry x="60" y="10" width="80" height="80" as="geometry" />
        </mxCell>
        <mxCell id="NtAfsmwFFrSSaD4eCqGA-12" value="Secure&lt;br&gt;Storage&lt;br&gt;Plugin" style="rhombus;whiteSpace=wrap;html=1;" vertex="1" parent="1">
          <mxGeometry x="160" y="10" width="80" height="80" as="geometry" />
        </mxCell>
        <mxCell id="NtAfsmwFFrSSaD4eCqGA-16" value="Tickets" style="edgeStyle=orthogonalEdgeStyle;curved=1;rounded=0;orthogonalLoop=1;jettySize=auto;html=1;exitX=0.5;exitY=0;exitDx=0;exitDy=0;entryX=0.75;entryY=1;entryDx=0;entryDy=0;" edge="1" parent="1" source="NtAfsmwFFrSSaD4eCqGA-15" target="NtAfsmwFFrSSaD4eCqGA-2">
          <mxGeometry relative="1" as="geometry" />
        </mxCell>
        <mxCell id="NtAfsmwFFrSSaD4eCqGA-20" style="edgeStyle=orthogonalEdgeStyle;curved=1;rounded=0;orthogonalLoop=1;jettySize=auto;html=1;exitX=0.75;exitY=0;exitDx=0;exitDy=0;entryX=0.5;entryY=1;entryDx=0;entryDy=0;" edge="1" parent="1" source="NtAfsmwFFrSSaD4eCqGA-15" target="NtAfsmwFFrSSaD4eCqGA-19">
          <mxGeometry relative="1" as="geometry" />
        </mxCell>
        <mxCell id="NtAfsmwFFrSSaD4eCqGA-15" value="Ticket Repository" style="rounded=0;whiteSpace=wrap;html=1;" vertex="1" parent="1">
          <mxGeometry x="400" y="280" width="120" height="60" as="geometry" />
        </mxCell>
        <mxCell id="NtAfsmwFFrSSaD4eCqGA-19" value="File Storage" style="rounded=0;whiteSpace=wrap;html=1;" vertex="1" parent="1">
          <mxGeometry x="490" y="120" width="120" height="60" as="geometry" />
        </mxCell>
      </root>
    </mxGraphModel>
  </diagram>
</mxfile>
